<svg xmlns="http://www.w3.org/2000/svg" viewBox="0 0 480 480" role="img" aria-label="Action camera">
  <circle cx="240" cy="240" r="190" fill="#ffe17f"/>
  <g transform="translate(80 80) scale(2)" fill="#363636">
    <path d="M97.349 37.49C97.349 36.754 96.771 36 96.038 36H53.053C52.32 36 51.672 36.754 51.672 37.49V41.012H97.348L97.349 37.49Z"/>
    <path d="M98.202 117.809H88.605V107.426H81.647V109.933H62.774C62.237 108.679 61.017 107.785 59.593 107.785H47.559C45.642 107.784 44 109.387 44 111.311V114.329C44 116.253 45.642 117.809 47.559 117.809H59.594C61.105 117.809 62.386 116.913 62.863 115.483H81.648V117.809H72.13C71.597 117.809 71.12 118.246 71.12 118.781V121.953C71.12 122.488 71.598 123.001 72.13 123.001H98.202C98.735 123.001 99.132 122.488 99.132 121.953V118.78C99.132 118.245 98.735 117.809 98.202 117.809Z"/>
    <path d="M104.666 48.39C103.805 45.453 101.099 43.34 97.895 43.34H51.148C47.25 43.34 44 46.449 44 50.361V97.261C44 101.173 47.25 104.382 51.148 104.382H97.895C101.793 104.382 105.021 101.173 105.021 97.261V86.915C111.087 82.711 115.022 75.704 115.022 67.751C115.021 59.672 110.89 52.57 104.666 48.39ZM56.238 98.151C52.979 98.151 50.337 95.501 50.337 92.23C50.337 88.96 52.979 86.308 56.238 86.308C59.497 86.308 62.14 88.96 62.14 92.23C62.14 95.501 59.497 98.151 56.238 98.151ZM62.199 65.546C62.199 66.332 61.564 66.968 60.781 66.968H51.841C51.058 66.968 50.423 66.331 50.423 65.546V51.386C50.423 50.6 51.058 49.963 51.841 49.963H60.78C61.563 49.963 62.198 50.6 62.198 51.386L62.199 65.546ZM91.762 87.858C80.686 87.858 71.705 78.848 71.705 67.735C71.705 56.622 80.685 47.611 91.762 47.611C102.839 47.611 111.82 56.621 111.82 67.735C111.82 78.849 102.839 87.858 91.762 87.858Z"/>
    <path d="M91.762 79.964C98.4932 79.964 103.95 74.4889 103.95 67.735C103.95 60.9811 98.4932 55.506 91.762 55.506C85.0308 55.506 79.574 60.9811 79.574 67.735C79.574 74.4889 85.0308 79.964 91.762 79.964Z"/>
  </g>
</svg>
