<svg xmlns="http://www.w3.org/2000/svg" viewBox="0 0 480 480" role="img" aria-label="Fitness tracker">
  <circle cx="240" cy="240" r="190" fill="#ffe17f"/>
  <g transform="translate(80 80) scale(2)" fill="#363636">
    <path d="M124.967 51.0741C125.719 52.5151 126.176 54.1541 126.176 55.8921V76.9941C126.176 81.6101 123.084 85.5211 118.93 86.8941C117.605 90.8811 115.152 94.7481 110.879 97.3261C102.203 102.557 79.755 102.163 79.681 102.163C79.603 102.163 57.168 102.558 48.492 97.3261C44.276 94.7811 41.784 90.9791 40.45 87.0471C36.032 85.8381 32.694 81.7961 32.694 76.9941V55.8931C32.694 54.2051 33.121 52.6111 33.833 51.2001C30.17 52.1091 26 53.9181 26 57.4341C26 63.6771 26 83.1211 26 87.4171C26 97.6681 37.839 111.85 79.657 111.85C121.477 111.85 133.314 97.6681 133.314 87.4171C133.314 83.1211 133.314 63.6771 133.314 57.4341C133.313 53.7501 128.738 51.9401 124.967 51.0741Z"/>
    <path d="M46.561 85.4591H112.084C117.648 85.4591 122.158 80.9461 122.158 75.3821V56.9351C122.158 51.3721 117.648 46.8601 112.084 46.8601H46.561C40.997 46.8601 36.486 51.3711 36.486 56.9351V75.3821C36.486 80.9461 40.997 85.4591 46.561 85.4591ZM79.657 81.06C75.05 81.06 71.315 77.327 71.315 72.722C71.315 68.117 75.05 64.383 79.657 64.383C84.264 64.383 88 68.117 88 72.722C88 77.327 84.264 81.06 79.657 81.06Z"/>
  </g>
</svg>
